<svg width="20" height="20" viewBox="0 0 20 20" fill="none" xmlns="http://www.w3.org/2000/svg">
<path d="M12.916 6.24992L14.8327 8.16658C14.9885 8.31927 15.1979 8.4048 15.416 8.4048C15.6341 8.4048 15.8436 8.31927 15.9993 8.16658L17.7493 6.41658C17.902 6.26081 17.9876 6.05138 17.9876 5.83325C17.9876 5.61512 17.902 5.40569 17.7493 5.24992L15.8327 3.33325" stroke="#E2469C" stroke-width="1.66667" stroke-linecap="round" stroke-linejoin="round"/>
<path d="M17.5 1.66675L9.5 9.66675" stroke="#E2469C" stroke-width="1.66667" stroke-linecap="round" stroke-linejoin="round"/>
<path d="M6.24935 17.4999C8.78065 17.4999 10.8327 15.4479 10.8327 12.9166C10.8327 10.3853 8.78065 8.33325 6.24935 8.33325C3.71804 8.33325 1.66602 10.3853 1.66602 12.9166C1.66602 15.4479 3.71804 17.4999 6.24935 17.4999Z" stroke="#E2469C" stroke-width="1.66667" stroke-linecap="round" stroke-linejoin="round"/>
</svg>
