<svg width="16" height="17" viewBox="0 0 16 17" fill="none" xmlns="http://www.w3.org/2000/svg">
<g clip-path="url(#clip0_84_12829)">
<path d="M14.4866 12.475L9.15329 3.14163C9.037 2.93643 8.86836 2.76575 8.66457 2.64701C8.46078 2.52826 8.22915 2.4657 7.99329 2.4657C7.75743 2.4657 7.52579 2.52826 7.322 2.64701C7.11822 2.76575 6.94958 2.93643 6.83329 3.14163L1.49995 12.475C1.38241 12.6785 1.32077 12.9096 1.32129 13.1446C1.32181 13.3797 1.38447 13.6105 1.50292 13.8135C1.62136 14.0166 1.79138 14.1847 1.99575 14.3008C2.20011 14.417 2.43156 14.4771 2.66662 14.475H13.3333C13.5672 14.4747 13.797 14.4129 13.9995 14.2958C14.202 14.1787 14.3701 14.0104 14.487 13.8077C14.6038 13.6051 14.6653 13.3752 14.6653 13.1413C14.6652 12.9074 14.6036 12.6776 14.4866 12.475Z" stroke="#FFCC33" stroke-width="1.33333" stroke-linecap="round" stroke-linejoin="round"/>
<path d="M8 6.47498V9.14164" stroke="#FFCC33" stroke-width="1.33333" stroke-linecap="round" stroke-linejoin="round"/>
<path d="M8 11.8083H8.00667" stroke="#FFCC33" stroke-width="1.33333" stroke-linecap="round" stroke-linejoin="round"/>
</g>
<defs>
<clipPath id="clip0_84_12829">
<rect width="16" height="16" fill="white" transform="translate(0 0.474976)"/>
</clipPath>
</defs>
</svg>
