<svg width="16" height="17" viewBox="0 0 16 17" fill="none" xmlns="http://www.w3.org/2000/svg">
<g clip-path="url(#clip0_84_12699)">
<path d="M11.6671 13.6414H6.00043C5.13501 13.6412 4.28669 13.4004 3.55028 12.9458C2.81387 12.4912 2.21838 11.8407 1.83035 11.0672C1.44231 10.2936 1.27703 9.42741 1.35296 8.56532C1.42889 7.70323 1.74305 6.87924 2.26033 6.18543C2.77761 5.49161 3.47763 4.9553 4.28217 4.63643C5.0867 4.31756 5.96406 4.22869 6.8162 4.37975C7.66834 4.53081 8.46168 4.91585 9.10759 5.49184C9.75349 6.06784 10.2265 6.81209 10.4738 7.64144H11.6671C12.4627 7.64144 13.2258 7.95751 13.7884 8.52012C14.351 9.08273 14.6671 9.84579 14.6671 10.6414C14.6671 11.4371 14.351 12.2002 13.7884 12.7628C13.2258 13.3254 12.4627 13.6414 11.6671 13.6414Z" stroke="#ED3B9D" stroke-width="1.33333" stroke-linecap="round" stroke-linejoin="round"/>
</g>
<defs>
<clipPath id="clip0_84_12699">
<rect width="16" height="16" fill="white" transform="translate(0 0.974854)"/>
</clipPath>
</defs>
</svg>
