<svg width="16" height="17" viewBox="0 0 16 17" fill="none" xmlns="http://www.w3.org/2000/svg">
<g clip-path="url(#clip0_84_12707)">
<path d="M7.99983 7.6416C7.64621 7.6416 7.30707 7.78208 7.05702 8.03213C6.80697 8.28217 6.6665 8.62131 6.6665 8.97493C6.6665 9.65493 6.59983 10.6483 6.49316 11.6416" stroke="#9940F2" stroke-width="1.33333" stroke-linecap="round" stroke-linejoin="round"/>
<path d="M9.33366 9.72144C9.33366 11.3081 9.33366 13.9748 8.66699 15.6414" stroke="#9940F2" stroke-width="1.33333" stroke-linecap="round" stroke-linejoin="round"/>
<path d="M11.5264 14.9882C11.6064 14.5882 11.813 13.4549 11.8597 12.9749" stroke="#9940F2" stroke-width="1.33333" stroke-linecap="round" stroke-linejoin="round"/>
<path d="M1.33301 8.97477C1.33301 7.57556 1.77326 6.21181 2.59139 5.0767C3.40953 3.9416 4.56408 3.09269 5.89149 2.65022C7.2189 2.20775 8.65189 2.19415 9.98746 2.61135C11.323 3.02855 12.4935 3.8554 13.333 4.97477" stroke="#9940F2" stroke-width="1.33333" stroke-linecap="round" stroke-linejoin="round"/>
<path d="M1.33301 11.6416H1.33967" stroke="#9940F2" stroke-width="1.33333" stroke-linecap="round" stroke-linejoin="round"/>
<path d="M14.5332 11.6416C14.6665 10.3083 14.6205 8.07227 14.5332 7.6416" stroke="#9940F2" stroke-width="1.33333" stroke-linecap="round" stroke-linejoin="round"/>
<path d="M3.33301 13.9749C3.66634 12.9749 3.99967 10.9749 3.99967 8.97493C3.999 8.52085 4.07565 8.06996 4.22634 7.6416" stroke="#9940F2" stroke-width="1.33333" stroke-linecap="round" stroke-linejoin="round"/>
<path d="M5.7666 15.6414C5.9066 15.2014 6.0666 14.7614 6.1466 14.3081" stroke="#9940F2" stroke-width="1.33333" stroke-linecap="round" stroke-linejoin="round"/>
<path d="M6 5.50807C6.60827 5.15688 7.29828 4.97206 8.00064 4.97217C8.70301 4.97228 9.39296 5.15733 10.0011 5.50871C10.6093 5.86008 11.1142 6.3654 11.4651 6.97383C11.816 7.58227 12.0005 8.27237 12 8.97473V10.3081" stroke="#9940F2" stroke-width="1.33333" stroke-linecap="round" stroke-linejoin="round"/>
</g>
<defs>
<clipPath id="clip0_84_12707">
<rect width="16" height="16" fill="white" transform="translate(0 0.974854)"/>
</clipPath>
</defs>
</svg>
