<svg width="16" height="17" viewBox="0 0 16 17" fill="none" xmlns="http://www.w3.org/2000/svg">
<g clip-path="url(#clip0_84_12687)">
<path d="M12.6667 8.30811H3.33333C2.59695 8.30811 2 8.90506 2 9.64144V14.3081C2 15.0445 2.59695 15.6414 3.33333 15.6414H12.6667C13.403 15.6414 14 15.0445 14 14.3081V9.64144C14 8.90506 13.403 8.30811 12.6667 8.30811Z" stroke="#05B2D1" stroke-width="1.33333" stroke-linecap="round" stroke-linejoin="round"/>
<path d="M4.66699 8.30811V5.64144C4.66699 4.75738 5.01818 3.90954 5.6433 3.28442C6.26842 2.65929 7.11627 2.30811 8.00033 2.30811C8.88438 2.30811 9.73223 2.65929 10.3573 3.28442C10.9825 3.90954 11.3337 4.75738 11.3337 5.64144V8.30811" stroke="#05B2D1" stroke-width="1.33333" stroke-linecap="round" stroke-linejoin="round"/>
</g>
<defs>
<clipPath id="clip0_84_12687">
<rect width="16" height="16" fill="white" transform="translate(0 0.974854)"/>
</clipPath>
</defs>
</svg>
