<svg width="33" height="32" viewBox="0 0 33 32" fill="none" xmlns="http://www.w3.org/2000/svg">
<mask id="path-1-inside-1_121_13791" fill="white">
<path d="M0.0800781 16C0.0800781 7.16344 7.24352 0 16.0801 0C24.9166 0 32.0801 7.16344 32.0801 16C32.0801 24.8366 24.9166 32 16.0801 32C7.24352 32 0.0800781 24.8366 0.0800781 16Z"/>
</mask>
<path d="M16.0801 32V31C7.79581 31 1.08008 24.2843 1.08008 16H0.0800781H-0.919922C-0.919922 25.3888 6.69124 33 16.0801 33V32ZM32.0801 16H31.0801C31.0801 24.2843 24.3643 31 16.0801 31V32V33C25.4689 33 33.0801 25.3888 33.0801 16H32.0801ZM16.0801 0V1C24.3643 1 31.0801 7.71573 31.0801 16H32.0801H33.0801C33.0801 6.61116 25.4689 -1 16.0801 -1V0ZM16.0801 0V-1C6.69124 -1 -0.919922 6.61116 -0.919922 16H0.0800781H1.08008C1.08008 7.71573 7.79581 1 16.0801 1V0Z" fill="#4B5563" mask="url(#path-1-inside-1_121_13791)"/>
<path d="M20.7474 22V20.6667C20.7474 19.9594 20.4664 19.2811 19.9663 18.781C19.4662 18.281 18.788 18 18.0807 18H14.0807C13.3735 18 12.6952 18.281 12.1951 18.781C11.695 19.2811 11.4141 19.9594 11.4141 20.6667V22" stroke="#9CA3AF" stroke-width="1.33333" stroke-linecap="round" stroke-linejoin="round"/>
<path d="M16.0807 15.3333C17.5535 15.3333 18.7474 14.1394 18.7474 12.6667C18.7474 11.1939 17.5535 10 16.0807 10C14.608 10 13.4141 11.1939 13.4141 12.6667C13.4141 14.1394 14.608 15.3333 16.0807 15.3333Z" stroke="#9CA3AF" stroke-width="1.33333" stroke-linecap="round" stroke-linejoin="round"/>
</svg>
