<svg width="16" height="17" viewBox="0 0 16 17" fill="none" xmlns="http://www.w3.org/2000/svg">
<g clip-path="url(#clip0_84_12788)">
<path d="M13.3337 9.41652C13.3337 12.7499 11.0003 14.4165 8.22699 15.3832C8.08177 15.4324 7.92402 15.43 7.78033 15.3765C5.00033 14.4165 2.66699 12.7499 2.66699 9.41652V4.74985C2.66699 4.57304 2.73723 4.40347 2.86225 4.27845C2.98728 4.15342 3.15685 4.08319 3.33366 4.08319C4.66699 4.08319 6.33366 3.28319 7.49366 2.26985C7.6349 2.14918 7.81456 2.08289 8.00033 2.08289C8.18609 2.08289 8.36576 2.14918 8.50699 2.26985C9.67366 3.28985 11.3337 4.08319 12.667 4.08319C12.8438 4.08319 13.0134 4.15342 13.1384 4.27845C13.2634 4.40347 13.3337 4.57304 13.3337 4.74985V9.41652Z" stroke="#9940F2" stroke-width="1.33333" stroke-linecap="round" stroke-linejoin="round"/>
<path d="M9.66634 7.08325L6.33301 10.4166" stroke="#9940F2" stroke-width="1.33333" stroke-linecap="round" stroke-linejoin="round"/>
<path d="M6.33301 7.08325L9.66634 10.4166" stroke="#9940F2" stroke-width="1.33333" stroke-linecap="round" stroke-linejoin="round"/>
</g>
<defs>
<clipPath id="clip0_84_12788">
<rect width="16" height="16" fill="white" transform="translate(0 0.749878)"/>
</clipPath>
</defs>
</svg>
