<svg width="16" height="17" viewBox="0 0 16 17" fill="none" xmlns="http://www.w3.org/2000/svg">
<g clip-path="url(#clip0_84_12839)">
<path d="M13.3337 9.14162C13.3337 12.4749 11.0003 14.1416 8.22699 15.1083C8.08177 15.1575 7.92402 15.1551 7.78033 15.1016C5.00033 14.1416 2.66699 12.4749 2.66699 9.14162V4.47495C2.66699 4.29814 2.73723 4.12857 2.86225 4.00355C2.98728 3.87852 3.15685 3.80828 3.33366 3.80828C4.66699 3.80828 6.33366 3.00828 7.49366 1.99495C7.6349 1.87428 7.81456 1.80798 8.00033 1.80798C8.18609 1.80798 8.36576 1.87428 8.50699 1.99495C9.67366 3.01495 11.3337 3.80828 12.667 3.80828C12.8438 3.80828 13.0134 3.87852 13.1384 4.00355C13.2634 4.12857 13.3337 4.29814 13.3337 4.47495V9.14162Z" stroke="#05B2D1" stroke-width="1.33333" stroke-linecap="round" stroke-linejoin="round"/>
<path d="M6 8.47493L7.33333 9.80827L10 7.1416" stroke="#05B2D1" stroke-width="1.33333" stroke-linecap="round" stroke-linejoin="round"/>
</g>
<defs>
<clipPath id="clip0_84_12839">
<rect width="16" height="16" fill="white" transform="translate(0 0.474976)"/>
</clipPath>
</defs>
</svg>
